<?xml version="1.0" standalone="no"?>
<!DOCTYPE svg PUBLIC "-//W3C//DTD SVG 20010904//EN"
 "http://www.w3.org/TR/2001/REC-SVG-20010904/DTD/svg10.dtd">
<svg version="1.0" xmlns="http://www.w3.org/2000/svg"
 width="93.000000pt" height="93.000000pt" viewBox="0 0 93.000000 93.000000"
 preserveAspectRatio="xMidYMid meet">
<metadata>
Created by potrace 1.14, written by Peter Selinger 2001-2017
</metadata>
<g transform="translate(0.000000,93.000000) scale(0.100000,-0.100000)"
fill="#000000" stroke="none">
<path d="M0 465 l0 -465 465 0 465 0 0 465 0 465 -465 0 -465 0 0 -465z m368
143 c1 -13 15 -84 31 -158 16 -74 28 -136 27 -137 -2 -2 -27 0 -57 4 l-53 8
-8 44 c-10 62 -18 63 -18 4 0 -55 -9 -63 -77 -63 -64 0 -63 -3 -63 166 l0 154
108 0 c104 0 108 -1 110 -22z"/>
<path d="M290 530 c0 -11 7 -20 15 -20 8 0 15 9 15 20 0 11 -7 20 -15 20 -8 0
-15 -9 -15 -20z"/>
</g>
</svg>
